<svg width="667" height="667" viewBox="0 0 667 667" fill="none" xmlns="http://www.w3.org/2000/svg">
<path fill-rule="evenodd" clip-rule="evenodd" d="M-1.52588e-05 333.333C-1.52588e-05 517.427 149.24 666.667 333.333 666.667C517.428 666.667 666.667 517.427 666.667 333.333C666.667 149.238 517.428 0 333.333 0C149.24 0 -1.52588e-05 149.238 -1.52588e-05 333.333ZM551.315 302.777C538.89 193.329 445.865 108.333 333.013 108.333C261.733 108.333 198.37 142.264 158.263 194.749C149.88 205.719 151.98 221.409 162.95 229.792C173.92 238.175 189.61 236.078 197.993 225.107C229.037 184.482 277.957 158.333 333.013 158.333C418.262 158.333 488.787 221.073 500.89 302.777H488.783C478.668 302.777 469.55 308.873 465.682 318.22C461.815 327.563 463.96 338.32 471.117 345.467L510.059 384.357C519.819 394.103 535.63 394.103 545.39 384.357L584.332 345.467C591.489 338.32 593.634 327.563 589.767 318.22C585.899 308.873 576.781 302.777 566.667 302.777H551.315ZM121.277 282.31C131.037 272.563 146.847 272.563 156.607 282.31L195.55 321.2C202.707 328.347 204.85 339.103 200.983 348.447C197.117 357.793 187.997 363.89 177.883 363.89H165.777C177.88 445.593 248.403 508.333 333.65 508.333C388.453 508.333 437.172 482.43 468.237 442.127C476.666 431.193 492.364 429.16 503.3 437.59C514.235 446.02 516.267 461.717 507.838 472.653C467.705 524.72 404.598 558.333 333.65 558.333C220.8 558.333 127.777 473.337 115.35 363.89H100C89.8833 363.89 80.7666 357.793 76.9 348.447C73.03 339.103 75.1766 328.347 82.3333 321.2L121.277 282.31Z" fill="#1C274C"/>
</svg>
