<svg width="72" height="79" viewBox="0 0 72 79" fill="none" xmlns="http://www.w3.org/2000/svg">
<g filter="url(#filter0_d_308_69)">
<path d="M55.877 54.4656C53.5131 55.5845 50.935 56.2068 48.3229 56.3304C37.1966 56.9512 27.6819 48.4269 27.0639 37.2996C27.0147 36.1354 27.0209 34.9774 27.1729 33.8245C27.28 32.9703 27.4557 31.5051 28.4425 30.0295C29.8373 27.9246 32.136 26.5848 34.6642 26.4068C36.3407 26.3021 38.0165 26.7036 39.456 27.6074C39.414 27.5802 26.0973 11.6441 11.8828 33.5626C5.91138 42.7705 9.74497 56.013 17.3986 60.9765C21.4184 63.6429 26.0158 65.3729 30.7871 66.0538C46.8711 68.2607 62.051 58.0822 66.1314 42.3741C64.6452 47.6972 60.9086 52.127 55.877 54.4656Z" fill="url(#paint0_linear_308_69)"/>
</g>
<g filter="url(#filter1_d_308_69)">
<path d="M42.0738 37.2137C41.8738 37.4636 41.2488 37.8385 41.2488 38.6382C41.2488 39.288 41.6738 39.9128 42.4238 40.4377C46.0237 42.9369 52.7985 42.612 52.8235 42.612C55.4984 42.612 58.0983 41.8872 60.3982 40.5376C65.0981 37.7885 67.998 32.765 67.998 27.3167C68.073 21.7184 65.9981 17.9945 65.1731 16.345C59.8733 5.97318 48.4236 0 35.999 0C18.4995 0 4.24999 14.0457 4 31.5404C4.125 22.4182 13.1997 15.0454 23.9994 15.0454C24.8743 15.0454 29.8742 15.1204 34.4991 17.5696C38.5739 19.719 40.7239 22.2932 42.1988 24.8674C43.7488 27.5416 44.0238 30.8906 44.0238 32.2402C44.0238 33.5648 43.3488 35.5642 42.0738 37.2137Z" fill="url(#paint1_radial_308_69)"/>
</g>
<defs>
<filter id="filter0_d_308_69" x="4.95715" y="21.9871" width="65.1742" height="52.3666" filterUnits="userSpaceOnUse" color-interpolation-filters="sRGB">
<feFlood flood-opacity="0" result="BackgroundImageFix"/>
<feColorMatrix in="SourceAlpha" type="matrix" values="0 0 0 0 0 0 0 0 0 0 0 0 0 0 0 0 0 0 127 0" result="hardAlpha"/>
<feOffset dy="4"/>
<feGaussianBlur stdDeviation="2"/>
<feComposite in2="hardAlpha" operator="out"/>
<feColorMatrix type="matrix" values="0 0 0 0 0 0 0 0 0 0 0 0 0 0 0 0 0 0 0.25 0"/>
<feBlend mode="normal" in2="BackgroundImageFix" result="effect1_dropShadow_308_69"/>
<feBlend mode="normal" in="SourceGraphic" in2="effect1_dropShadow_308_69" result="shape"/>
</filter>
<filter id="filter1_d_308_69" x="0" y="0" width="72" height="50.6259" filterUnits="userSpaceOnUse" color-interpolation-filters="sRGB">
<feFlood flood-opacity="0" result="BackgroundImageFix"/>
<feColorMatrix in="SourceAlpha" type="matrix" values="0 0 0 0 0 0 0 0 0 0 0 0 0 0 0 0 0 0 127 0" result="hardAlpha"/>
<feOffset dy="4"/>
<feGaussianBlur stdDeviation="2"/>
<feComposite in2="hardAlpha" operator="out"/>
<feColorMatrix type="matrix" values="0 0 0 0 0 0 0 0 0 0 0 0 0 0 0 0 0 0 0.25 0"/>
<feBlend mode="normal" in2="BackgroundImageFix" result="effect1_dropShadow_308_69"/>
<feBlend mode="normal" in="SourceGraphic" in2="effect1_dropShadow_308_69" result="shape"/>
</filter>
<linearGradient id="paint0_linear_308_69" x1="32.5765" y1="25.3297" x2="42.8758" y2="65.1838" gradientUnits="userSpaceOnUse">
<stop stop-color="#090E2C"/>
<stop offset="0.5" stop-color="#122C69"/>
<stop offset="1" stop-color="#078DB3"/>
</linearGradient>
<radialGradient id="paint1_radial_308_69" cx="0" cy="0" r="1" gradientUnits="userSpaceOnUse" gradientTransform="translate(10.4629 11.8446) rotate(92.2916) scale(50.6224 107.861)">
<stop stop-color="#090E2C"/>
<stop offset="0.5" stop-color="#122C69"/>
<stop offset="1" stop-color="#078DB3"/>
</radialGradient>
</defs>
</svg>
