<svg width="67" height="79" viewBox="0 0 67 79" fill="none" xmlns="http://www.w3.org/2000/svg">
<path d="M54.877 54.4656C52.5131 55.5845 49.935 56.2068 47.3229 56.3304C36.1966 56.9512 26.6819 48.4269 26.0639 37.2996C26.0147 36.1354 26.0209 34.9774 26.1729 33.8245C26.28 32.9703 26.4557 31.5051 27.4425 30.0295C28.8373 27.9246 31.136 26.5848 33.6642 26.4068C35.3407 26.3021 37.0165 26.7036 38.456 27.6074C38.414 27.5802 25.0973 11.6441 10.8828 33.5626C4.91138 42.7705 8.74497 56.013 16.3986 60.9765C20.4184 63.6429 25.0158 65.3729 29.7871 66.0538C45.8711 68.2607 61.051 58.0822 65.1314 42.3741C63.6452 47.6972 59.9086 52.127 54.877 54.4656Z" fill="#333333"/>
<path d="M41.0738 37.2137C40.8738 37.4636 40.2488 37.8385 40.2488 38.6382C40.2488 39.288 40.6738 39.9128 41.4238 40.4377C45.0237 42.9369 51.7985 42.612 51.8235 42.612C54.4984 42.612 57.0983 41.8872 59.3982 40.5376C64.0981 37.7885 66.998 32.765 66.998 27.3167C67.073 21.7184 64.9981 17.9945 64.1731 16.345C58.8733 5.97318 47.4236 0 34.999 0C17.4995 0 3.24999 14.0457 3 31.5404C3.125 22.4182 12.1997 15.0454 22.9994 15.0454C23.8743 15.0454 28.8742 15.1204 33.4991 17.5696C37.5739 19.719 39.7239 22.2932 41.1988 24.8674C42.7488 27.5416 43.0238 30.8906 43.0238 32.2402C43.0238 33.5648 42.3488 35.5642 41.0738 37.2137Z" fill="#333333"/>
</svg>
