<svg width="16" height="16" viewBox="0 0 16 16" fill="none" xmlns="http://www.w3.org/2000/svg">
<g clip-path="url(#clip0_21_16)">
<path fill-rule="evenodd" clip-rule="evenodd" d="M2.4817 15.5297C2.20057 15.6432 1.91595 15.3741 2.02312 15.0961L2.23208 14.5521C3.25707 11.8839 6.35012 3.83449 7.52995 0.764111C7.694 0.337185 8.29611 0.336181 8.46129 0.762671C9.64731 3.82497 12.7521 11.8422 13.765 14.4647L13.9768 15.0139C14.0854 15.2952 13.7924 15.5657 13.5106 15.4441L9.91433 13.8931C8.87191 13.4432 7.68614 13.4296 6.63329 13.8544L2.4817 15.5297ZM6.25914 12.927C7.55936 12.4025 9.02256 12.4191 10.3106 12.975L12.4785 13.9099C11.3865 11.0856 9.23546 5.53066 7.99773 2.33468C6.75748 5.56232 4.59163 11.1988 3.49988 14.0405L6.25914 12.927Z" fill="#333333"/>
<path d="M5.27373 4.05682H0C0 5.16244 0.896288 6.05872 2.00191 6.05871L4.45321 6.05869L5.27373 4.05682Z" fill="#333333"/>
<path d="M4.04421 7.05657H1C1 8.16239 1.89645 9.05882 3.00226 9.05881L3.22358 9.0588L4.04421 7.05657Z" fill="#333333"/>
<path d="M16 4.05682H10.7263L11.5468 6.05869L13.9981 6.05871C15.1037 6.05872 16 5.16244 16 4.05682Z" fill="#333333"/>
<path d="M15 7.05657H11.9558L12.7764 9.0588L12.9977 9.05881C14.1036 9.05882 15 8.16239 15 7.05657Z" fill="#333333"/>
</g>
<defs>
<clipPath id="clip0_21_16">
<rect width="16" height="16" fill="white"/>
</clipPath>
</defs>
</svg>
